# xmcd
# 
# Track frame offsets:
#     150
#     17112
#     37542
#     53992
#     76245
#     96880
#     113890
#     132600
#     149300
#     164607
# 
# Disc length: 2509
# 
# Revision: 5
# Processed by: cddbd v1.5.2PL0 Copyright (c) Steve Scherf et al.
# Submitted via: fre:ac v1.0.31
# 
DISCID=8109cb0a
DTITLE=PERSONZ - PERSONZ
DYEAR=1987
DGENRE=Rock
TTITLE0=Midnight Teenage Shuffle
TTITLE1=Burnin' With Love
TTITLE2=Girls, Will Be Girls
TTITLE3=Walkin' Day Dream
TTITLE4=Lucky Star
TTITLE5=Freedom World
TTITLE6=陽炎達のGOSPEL
TTITLE7=REMEMBER (Eyes Of Children)
TTITLE8=Tomorrow Is Another Day
TTITLE9=Never Surrender
EXTD=1987.9.21
EXTT0=
EXTT1=
EXTT2=
EXTT3=
EXTT4=
EXTT5=
EXTT6=
EXTT7=
EXTT8=
EXTT9=
PLAYORDER=
